<svg width="16" height="16" viewBox="0 0 16 16" fill="none" xmlns="http://www.w3.org/2000/svg">
<path d="M8 0.666656C3.93334 0.666656 0.666672 3.93332 0.666672 7.99999C0.666672 12.0667 3.93334 15.3333 8 15.3333C12.0667 15.3333 15.3333 12.0667 15.3333 7.99999C15.3333 3.93332 12.0667 0.666656 8 0.666656ZM12.4667 9.19999C12.4 9.46665 12.1333 9.59999 11.8667 9.53332L8.13334 8.79999C8 8.79999 7.86667 8.66666 7.73334 8.59999C7.46667 8.46666 7.33334 8.26666 7.33334 7.99999L7.46667 2.66666C7.46667 2.33332 7.73334 2.13332 8 2.13332C8.26667 2.13332 8.53334 2.39999 8.53334 2.66666L8.6 7.26666L12.0667 8.46666C12.4 8.53332 12.5333 8.86665 12.4667 9.19999Z" fill="#203446"/>
</svg>
