<svg width="31" height="31" viewBox="0 0 31 31" fill="none" xmlns="http://www.w3.org/2000/svg">
<path d="M21.9596 0.083313H9.04041C3.42874 0.083313 0.0833282 3.42873 0.0833282 9.0404V21.9441C0.0833282 27.5712 3.42874 30.9166 9.04041 30.9166H21.9442C27.5558 30.9166 30.9012 27.5712 30.9012 21.9596V9.0404C30.9167 3.42873 27.5712 0.083313 21.9596 0.083313Z" fill="#203446"/>
<path d="M15.4992 13.4803C14.3892 13.4803 13.4796 14.3899 13.4796 15.4999C13.4796 16.6099 14.3892 17.5195 15.4992 17.5195C16.6092 17.5195 17.5188 16.6099 17.5188 15.4999C17.5188 14.3899 16.6092 13.4803 15.4992 13.4803Z" fill="#94BEE5"/>
<path d="M7.79082 13.4803C6.68082 13.4803 5.77124 14.3899 5.77124 15.4999C5.77124 16.6099 6.68082 17.5195 7.79082 17.5195C8.90082 17.5195 9.81041 16.6099 9.81041 15.4999C9.81041 14.3899 8.90082 13.4803 7.79082 13.4803Z" fill="#94BEE5"/>
<path d="M23.2076 13.4803C22.0976 13.4803 21.188 14.3899 21.188 15.4999C21.188 16.6099 22.0976 17.5195 23.2076 17.5195C24.3176 17.5195 25.2271 16.6099 25.2271 15.4999C25.2271 14.3899 24.3176 13.4803 23.2076 13.4803Z" fill="#94BEE5"/>
</svg>
